<svg id="Layer_1" height="512" viewBox="0 0 64 64" width="512" xmlns="http://www.w3.org/2000/svg" data-name="Layer 1"><ellipse fill="#161A30" stroke="#161A30" cx="17.04" cy="24" rx="4.04" ry="4"/><path fill="#161A30" stroke="#161A30" stroke-width="0" d="m57 4a1 1 0 0 0 -2 0v.42l-11 4.58 11 4.58v5.42h-4l-6 19h-7l-8 20h-27v3h58v-42h-4z"/><path fill="#161A30" stroke="#161A30" stroke-width="0" d="m10.56 56.54 2.32-5.76a4.44 4.44 0 0 1 8.24 0l2.32 5.76a2.26 2.26 0 1 0 4.18-1.69l-3.34-7.72a15.67 15.67 0 0 1 1.72-15.39l4.65-6.45a2.08 2.08 0 0 0 -1.73-3.29 2.1 2.1 0 0 0 -1.56.71l-3.81 4.37a8.55 8.55 0 0 1 -6.43 2.92h-.12a8.84 8.84 0 0 1 -6.65-3l-3.71-4.29a2.1 2.1 0 0 0 -1.56-.71 2.08 2.08 0 0 0 -1.68 3.29l4.65 6.45a15.72 15.72 0 0 1 3 9.17 15.64 15.64 0 0 1 -1.29 6.22l-3.38 7.72a2.26 2.26 0 1 0 4.18 1.69z"/></svg>