<svg enable-background="new 0 0 100 100" height="100" viewBox="0 0 100 100" width="100" xmlns="http://www.w3.org/2000/svg"><g id="Layer_2"><path fill="#161A30" stroke="#161A30" d="m84.556 8.756c-.854.53-1.723.973-2.688 1.368-1.284.526-2.615.445-3.946.91-2.192.764-5.033 2.321-6.922 3.716-1.047.773-2.004 1.29-2.868 2.25-.787.873-1.63 2.072-2.625 2.631-.99.557-2.797.979-3.889.652-1.306-.391-1.289-1.37-2.712-.787-1.17.48-2.318 1.678-3.663 2.043-.747.203-1.112-.051-1.743.057-.644.111-.903.572-1.479.78-1.314.476-1.662-.475-2.549-1.381-.239-.244-.589-.225-.819-.525-.127-.165-.058-.604-.181-.721-.366-.345-.366-.684-1.079-.52.056-.24-.093-.597-.037-.837-.884.014-1.042-.587-1.89-.05-.604.381-.34 1.403-1.342 1.287-1.172-.135-1.323-2.338-2.25-2.881-.782-.458-1.029-.154-1.854-.278-.543-.082-1.007-.509-1.646-.562-.699-.059-1.211.071-1.844-.19-.37-.153-.656-.776-1.031-.969l-22.25.375v.125l-1.375 56.875c.009-.061-.028.019-.116.125.186.136.4.182.622.237.739-2.204 1.877 1.02 3.396.542.839-.263.922-1.41 1.973-1.377 1.164.036.843.987.894 1.952 1.093-.021 1.489.412 2.075 1.297.608.921 1.329 1.619 1.531 2.576.125.592-.192 1.111.244 1.559.402.412 1.392.227 1.881.332 1.106.236 2.421.14 3.354.624 1.052.546 1.518 1.987 2.512 2.663.19.129 1.381.789 1.635.724.528-.134.583-.956 1.019-1.346 1.962-1.76 4.181 2.131 6.328 1.75 1.075-.19 2.351-.459 2.934-1.284.825-1.166 1.234-2.319 2.948-1.733.146.64.099 1.398.365 2.001.158.356.642.553.757.852.587 1.522-.2 1.091 1.405 1.5.96.244 3.712 1.853 2.723 2.891 1.91 1.042 3.171-1.623 4.754-1.022.291-.795-.532-1.539-.345-2.112.216-.66 1.638-.812 2.212-.762.312-.693.472-1.262.31-1.988-.154-.69-.782-.848-.888-1.239-.261-.972.158-1.155.729-1.642.725-.618.861.184 1-1.182.083-.821-.017-1.14.372-1.805.142-.241 1.123-1.653 1.272-1.713.517-.207 1.644.592 1.827.95.299.583-.052 1.757-.08 2.365 1.535-.207 1.743-.573 2.353-1.733.152-.292.455-.561.502-.866.12-.777-.232-.833-.273-1.484-.062-.987.701-.943.902-2.019.15-.803-.216-1.011.192-1.734.214-.38.994-.874 1.311-1.162.966 1.807 1.432-1.204 1.872-1.735.761-.917 2.677-1.363 2.517.355 1.244.098 2.043-1.249 2.858-1.867.694-.527 1.738-1.062 2.407-1.699 1.744-1.662 3.149-2.94 4.078-5.137-.787-.729.179-1.468.614-2.153.568-.892.726-1.967.904-2.97.17-.958.421-1.978.499-2.902.123-1.452.45-1.723 1.091-3.028.53-1.08.045-1.483.028-2.476-.018-1.047.636-2.026.378-3.127-.168-.717-1.167-1.314-1.1-2.122.096-1.13 1.354-.843 2.203-.897.079-.155.119-.305.145-.463z"/></g></svg>