<svg height="512" viewBox="0 0 32 32" width="512" xmlns="http://www.w3.org/2000/svg"><g id="_57-Resume" data-name="57-Resume"><path fill="#161A30" stroke="#161A30" stroke-width="0" d="m22 10a3 3 0 0 1 -3-3v-5h-11a3 3 0 0 0 -3 3v22a3 3 0 0 0 3 3h16a3 3 0 0 0 3-3v-17zm-9-3a3 3 0 1 1 -3 3 3 3 0 0 1 3-3zm-4 10a3 3 0 0 1 3-3h2a3 3 0 0 1 3 3v2a1 1 0 0 1 -1 1h-6a1 1 0 0 1 -1-1zm13 8h-12a1 1 0 0 1 0-2h12a1 1 0 0 1 0 2zm0-5h-2a1 1 0 0 1 0-2h2a1 1 0 0 1 0 2zm0-5h-2a1 1 0 0 1 0-2h2a1 1 0 0 1 0 2z"/><path fill="#161A30" stroke="#161A30" stroke-width="0" d="m22 8h4.42l-5.42-5.42v4.42a1 1 0 0 0 1 1z"/></g></svg>